<?xml version="1.0" encoding="utf-8"?>
<!-- Generator: Adobe Illustrator 17.0.0, SVG Export Plug-In . SVG Version: 6.00 Build 0)  -->
<!DOCTYPE svg PUBLIC "-//W3C//DTD SVG 1.1//EN" "http://www.w3.org/Graphics/SVG/1.1/DTD/svg11.dtd">
<svg version="1.1" id="Layer_1" xmlns="http://www.w3.org/2000/svg" xmlns:xlink="http://www.w3.org/1999/xlink" x="0px" y="0px"
	 width="250px" height="76px" viewBox="0 0 250 76" enable-background="new 0 0 250 76" xml:space="preserve">
<g>
	<g>
		<path fill="#527180" d="M51.064,31.07l3.977-2.459l4.378,0.983l2.73,1.573H51.046L51.064,31.07z M44.672,20.693l0.062-0.034
			c0.139-0.078,0.486-0.161,0.916-0.161c0.315,0,0.591,0.045,0.775,0.13c0.68,0.305,2.201,1.281,1.662,3.727
			c-0.448,2.039-1.069,2.892-2.141,2.948c-0.38,0.019-0.63,0.001-0.66-0.001c-0.64,0-1.461-0.333-2.131-2.935
			C42.725,22.697,43.235,21.46,44.672,20.693 M35.066,50.682c0.035-0.021,0.061-0.051,0.079-0.086l6.394-12.939
			c0.119,1.486,0.385,4.843,0.578,7.594L41.5,46.676l-4.615,4.8c-0.03,0.03-0.049,0.07-0.056,0.112l-0.29,1.702l-5.508-0.103
			L35.066,50.682z M31.848,29.595l4.616-0.892l3.828,2.368l0.019,0.097H29.12L31.848,29.595z M50.668,30.897l-1.206,5.956
			c-0.041,0.274-0.721,4.896-1.151,8.458l-0.007,0.002l0.006,0.015c-0.181,1.503-0.318,2.817-0.341,3.532
			c-0.014,0.413-0.076,0.974-0.148,1.624c-0.147,1.33-0.331,2.985-0.148,4.084c0.092,0.549,0.187,0.937,0.253,1.174h-2.178V40.196
			c0-0.117-0.095-0.212-0.212-0.212c-0.117,0-0.212,0.095-0.212,0.212v15.546h-2.338c0.066-0.237,0.161-0.626,0.253-1.174
			c0.175-1.051-0.055-2.565-0.257-3.899c-0.106-0.699-0.206-1.358-0.221-1.809c-0.079-2.402-0.853-11.913-0.865-12.035l-1.205-5.928
			c-0.012-0.057-0.047-0.108-0.097-0.139L29.132,23.67h3.099c0.562,0,5.55,1.465,7.466,2.065c1.375,0.429,3.427,0.911,3.979,1.038
			c0.438,0.64,0.957,0.953,1.592,0.953h0.001c0,0,0.126,0.01,0.334,0.01c0.103,0,0.225-0.003,0.363-0.01
			c0.768-0.039,1.299-0.428,1.683-0.992c0.602-0.127,2.654-0.575,4.01-0.998c1.913-0.6,6.901-2.065,7.465-2.065h3.099l-11.461,7.088
			C50.714,30.789,50.679,30.84,50.668,30.897 M49.783,37.584l6.43,13.013c0.017,0.035,0.044,0.065,0.077,0.086l4.037,2.506
			l-5.508,0.102l-0.289-1.702c-0.009-0.046-0.033-0.09-0.066-0.121l-5.208-4.746l-0.513-1.44
			C49.083,42.469,49.576,39.008,49.783,37.584 M45.652,13.576c-13.556,0-24.545,10.989-24.545,24.545
			c0,13.556,10.989,24.544,24.545,24.544S70.197,51.676,70.197,38.12C70.197,24.564,59.208,13.576,45.652,13.576"/>
		<rect x="0.022" y="0.12" fill="#527180" width="4.813" height="76"/>
		<g>
			<g>
				<path fill="#527180" d="M96.358,64.124l-0.471-2.144l-0.636-2.709h-0.038l-1.119,4.853h-1.799l-1.744-6.131h1.667l0.707,2.714
					c0.113,0.486,0.229,1.157,0.345,2.013h0.033c0.015-0.278,0.078-0.718,0.192-1.322l0.088-0.466l0.757-2.939h1.843l0.718,2.939
					c0.015,0.08,0.038,0.199,0.068,0.357c0.031,0.157,0.061,0.324,0.091,0.502c0.029,0.178,0.056,0.351,0.08,0.521
					c0.024,0.17,0.037,0.306,0.041,0.409h0.033c0.033-0.263,0.091-0.624,0.176-1.083c0.084-0.459,0.144-0.768,0.181-0.929
					l0.735-2.714h1.64l-1.766,6.131H96.358z"/>
				<path fill="#527180" d="M105.971,64.124l-0.471-2.144l-0.636-2.709h-0.038l-1.119,4.853h-1.799l-1.744-6.131h1.667l0.707,2.714
					c0.113,0.486,0.229,1.157,0.345,2.013h0.033c0.015-0.278,0.078-0.718,0.192-1.322l0.088-0.466l0.757-2.939h1.843l0.718,2.939
					c0.015,0.08,0.038,0.199,0.068,0.357c0.031,0.157,0.061,0.324,0.091,0.502c0.029,0.178,0.056,0.351,0.08,0.521
					c0.024,0.17,0.037,0.306,0.041,0.409h0.033c0.033-0.263,0.091-0.624,0.176-1.083c0.084-0.459,0.144-0.768,0.181-0.929
					l0.735-2.714h1.64l-1.766,6.131H105.971z"/>
				<path fill="#527180" d="M115.584,64.124l-0.471-2.144l-0.636-2.709h-0.038l-1.119,4.853h-1.799l-1.744-6.131h1.667l0.707,2.714
					c0.113,0.486,0.229,1.157,0.345,2.013h0.033c0.015-0.278,0.078-0.718,0.192-1.322l0.088-0.466l0.757-2.939h1.843l0.718,2.939
					c0.015,0.08,0.038,0.199,0.068,0.357c0.031,0.157,0.061,0.324,0.091,0.502c0.029,0.178,0.056,0.351,0.08,0.521
					c0.024,0.17,0.037,0.306,0.041,0.409h0.033c0.033-0.263,0.091-0.624,0.176-1.083c0.084-0.459,0.144-0.768,0.181-0.929
					l0.735-2.714h1.64l-1.766,6.131H115.584z"/>
				<path fill="#527180" d="M119.922,63.34c0-0.307,0.082-0.539,0.247-0.696c0.164-0.157,0.404-0.236,0.718-0.236
					c0.303,0,0.538,0.08,0.705,0.241s0.249,0.391,0.249,0.691c0,0.289-0.084,0.516-0.252,0.683
					c-0.168,0.166-0.402,0.249-0.702,0.249c-0.307,0-0.545-0.081-0.713-0.244S119.922,63.636,119.922,63.34z"/>
				<path fill="#527180" d="M129.019,64.124h-1.673v-3.581c0-0.885-0.329-1.327-0.987-1.327c-0.468,0-0.806,0.159-1.015,0.477
					c-0.208,0.318-0.312,0.833-0.312,1.546v2.885h-1.673v-8.533h1.673v1.738c0,0.135-0.013,0.453-0.038,0.954l-0.038,0.494h0.088
					c0.373-0.599,0.965-0.899,1.777-0.899c0.72,0,1.267,0.194,1.64,0.581c0.373,0.388,0.559,0.943,0.559,1.667V64.124z"/>
				<path fill="#527180" d="M133.231,64.234c-1.909,0-2.863-1.047-2.863-3.142c0-1.042,0.26-1.838,0.779-2.388
					c0.519-0.55,1.263-0.825,2.232-0.825c0.709,0,1.345,0.139,1.908,0.417l-0.493,1.294c-0.263-0.106-0.508-0.193-0.735-0.26
					c-0.227-0.068-0.453-0.102-0.68-0.102c-0.87,0-1.305,0.618-1.305,1.854c0,1.199,0.435,1.799,1.305,1.799
					c0.322,0,0.62-0.043,0.894-0.129c0.274-0.086,0.548-0.22,0.823-0.403v1.431c-0.271,0.172-0.544,0.291-0.82,0.356
					C134,64.201,133.651,64.234,133.231,64.234z"/>
				<path fill="#527180" d="M142.005,64.124h-1.672v-3.581c0-0.443-0.074-0.774-0.222-0.995c-0.148-0.221-0.381-0.332-0.699-0.332
					c-0.428,0-0.738,0.157-0.932,0.472c-0.194,0.314-0.291,0.832-0.291,1.552v2.885h-1.673v-6.131h1.278l0.225,0.784h0.093
					c0.164-0.281,0.402-0.502,0.713-0.661c0.311-0.159,0.667-0.238,1.069-0.238c0.918,0,1.539,0.3,1.865,0.899h0.148
					c0.164-0.285,0.407-0.506,0.727-0.663c0.32-0.157,0.681-0.236,1.083-0.236c0.695,0,1.22,0.178,1.576,0.535
					c0.357,0.356,0.535,0.928,0.535,1.714v3.998h-1.678v-3.581c0-0.443-0.074-0.774-0.222-0.995
					c-0.148-0.221-0.381-0.332-0.699-0.332c-0.41,0-0.716,0.146-0.919,0.439c-0.203,0.292-0.304,0.757-0.304,1.393V64.124z"/>
				<path fill="#527180" d="M150.933,59.249h-1.448v4.875h-1.673v-4.875h-0.921v-0.806l0.921-0.45v-0.45
					c0-0.698,0.172-1.208,0.516-1.53c0.344-0.322,0.894-0.482,1.651-0.482c0.578,0,1.091,0.086,1.541,0.258l-0.428,1.228
					c-0.337-0.106-0.647-0.159-0.932-0.159c-0.238,0-0.41,0.07-0.516,0.211s-0.159,0.321-0.159,0.54v0.384h1.448V59.249z"/>
				<path fill="#527180" d="M155.314,57.878c0.227,0,0.415,0.016,0.565,0.049l-0.126,1.568c-0.135-0.037-0.3-0.055-0.494-0.055
					c-0.534,0-0.95,0.137-1.248,0.411c-0.298,0.274-0.447,0.658-0.447,1.152v3.12h-1.673v-6.131h1.267l0.247,1.031h0.082
					c0.19-0.344,0.447-0.621,0.77-0.831C154.582,57.983,154.934,57.878,155.314,57.878z"/>
				<path fill="#527180" d="M162.564,61.048c0,0.998-0.263,1.779-0.79,2.341c-0.526,0.563-1.26,0.845-2.199,0.845
					c-0.589,0-1.108-0.129-1.557-0.387c-0.45-0.258-0.795-0.628-1.037-1.11c-0.241-0.483-0.362-1.045-0.362-1.689
					c0-1.002,0.262-1.78,0.784-2.336c0.523-0.556,1.258-0.833,2.205-0.833c0.589,0,1.108,0.128,1.557,0.384
					c0.45,0.256,0.795,0.623,1.037,1.102C162.443,59.843,162.564,60.404,162.564,61.048z M158.325,61.048
					c0,0.607,0.099,1.066,0.299,1.377c0.199,0.311,0.524,0.466,0.974,0.466c0.446,0,0.767-0.154,0.962-0.463
					c0.195-0.309,0.293-0.768,0.293-1.379c0-0.607-0.099-1.062-0.296-1.365c-0.197-0.303-0.521-0.455-0.971-0.455
					c-0.446,0-0.768,0.151-0.965,0.452C158.423,59.981,158.325,60.437,158.325,61.048z"/>
				<path fill="#527180" d="M169.605,64.124h-1.673v-3.581c0-0.443-0.078-0.774-0.236-0.995c-0.157-0.221-0.408-0.332-0.751-0.332
					c-0.468,0-0.806,0.156-1.015,0.469c-0.208,0.313-0.312,0.831-0.312,1.555v2.885h-1.673v-6.131h1.278l0.225,0.784h0.093
					c0.186-0.296,0.443-0.52,0.77-0.672c0.327-0.152,0.699-0.228,1.116-0.228c0.713,0,1.254,0.193,1.623,0.578
					c0.369,0.386,0.554,0.942,0.554,1.67V64.124z"/>
				<path fill="#527180" d="M173.91,62.901c0.292,0,0.643-0.064,1.053-0.192v1.245c-0.417,0.186-0.929,0.28-1.536,0.28
					c-0.669,0-1.156-0.169-1.461-0.507c-0.305-0.338-0.458-0.846-0.458-1.522v-2.956h-0.801v-0.707l0.921-0.559l0.483-1.294h1.069
					v1.305h1.716v1.256h-1.716v2.956c0,0.238,0.066,0.413,0.2,0.526S173.69,62.901,173.91,62.901z"/>
				<path fill="#527180" d="M175.966,63.34c0-0.307,0.082-0.539,0.247-0.696c0.164-0.157,0.404-0.236,0.718-0.236
					c0.303,0,0.538,0.08,0.705,0.241c0.166,0.161,0.249,0.391,0.249,0.691c0,0.289-0.084,0.516-0.252,0.683
					c-0.168,0.166-0.402,0.249-0.702,0.249c-0.307,0-0.545-0.081-0.713-0.244C176.05,63.865,175.966,63.636,175.966,63.34z"/>
				<path fill="#527180" d="M181.894,64.234c-1.908,0-2.863-1.047-2.863-3.142c0-1.042,0.26-1.838,0.779-2.388
					c0.519-0.55,1.263-0.825,2.232-0.825c0.709,0,1.345,0.139,1.908,0.417l-0.494,1.294c-0.263-0.106-0.508-0.193-0.735-0.26
					c-0.227-0.068-0.453-0.102-0.68-0.102c-0.87,0-1.305,0.618-1.305,1.854c0,1.199,0.435,1.799,1.305,1.799
					c0.322,0,0.62-0.043,0.894-0.129c0.274-0.086,0.548-0.22,0.823-0.403v1.431c-0.271,0.172-0.544,0.291-0.82,0.356
					C182.663,64.201,182.315,64.234,181.894,64.234z"/>
				<path fill="#527180" d="M190.75,61.048c0,0.998-0.263,1.779-0.79,2.341c-0.526,0.563-1.26,0.845-2.199,0.845
					c-0.589,0-1.108-0.129-1.557-0.387s-0.795-0.628-1.037-1.11c-0.241-0.483-0.362-1.045-0.362-1.689
					c0-1.002,0.262-1.78,0.784-2.336c0.523-0.556,1.258-0.833,2.205-0.833c0.589,0,1.108,0.128,1.557,0.384
					c0.45,0.256,0.795,0.623,1.037,1.102C190.63,59.843,190.75,60.404,190.75,61.048z M186.511,61.048
					c0,0.607,0.099,1.066,0.299,1.377c0.199,0.311,0.524,0.466,0.974,0.466c0.446,0,0.767-0.154,0.962-0.463
					c0.195-0.309,0.293-0.768,0.293-1.379c0-0.607-0.099-1.062-0.296-1.365c-0.197-0.303-0.521-0.455-0.971-0.455
					c-0.446,0-0.768,0.151-0.965,0.452C186.61,59.981,186.511,60.437,186.511,61.048z"/>
				<path fill="#527180" d="M197.621,64.124h-1.672v-3.581c0-0.443-0.074-0.774-0.222-0.995c-0.148-0.221-0.381-0.332-0.699-0.332
					c-0.428,0-0.738,0.157-0.932,0.472c-0.194,0.314-0.291,0.832-0.291,1.552v2.885h-1.673v-6.131h1.278l0.225,0.784h0.093
					c0.164-0.281,0.402-0.502,0.713-0.661c0.311-0.159,0.667-0.238,1.069-0.238c0.918,0,1.539,0.3,1.865,0.899h0.148
					c0.164-0.285,0.407-0.506,0.727-0.663c0.32-0.157,0.681-0.236,1.083-0.236c0.695,0,1.22,0.178,1.576,0.535
					c0.357,0.356,0.535,0.928,0.535,1.714v3.998h-1.678v-3.581c0-0.443-0.074-0.774-0.222-0.995
					c-0.148-0.221-0.381-0.332-0.699-0.332c-0.41,0-0.716,0.146-0.919,0.439c-0.203,0.292-0.304,0.757-0.304,1.393V64.124z"/>
			</g>
			<g>
				<path fill="#527180" d="M206.341,13.756h-1.533v3.806h-1.813v1.251h1.813v9.656c0,1.812,0.384,2.681,2.095,2.681
					c0.587,0,1.201-0.102,1.89-0.281v-1.226c-0.587,0.127-1.072,0.255-1.481,0.255c-0.843,0-0.971-0.46-0.971-1.43v-9.656h2.452
					v-1.251h-2.452V13.756z M189.663,30.818h1.532v-7.816c0-2.758,1.61-4.418,4.036-4.418c2.708,0,3.295,1.277,3.295,3.959v8.275
					h1.533v-8.071v-0.383c0-1.406-0.025-2.453-0.537-3.27c-0.715-1.174-2.145-1.864-3.985-1.864c-1.94,0-3.397,0.817-4.393,2.452
					v-2.12h-1.481V30.818z M175.436,24.202c0-3.626,1.685-5.619,4.495-5.619c2.835,0,4.521,1.993,4.521,5.619
					c0,3.627-1.686,5.594-4.521,5.594C177.121,29.797,175.436,27.829,175.436,24.202 M173.852,24.202
					c0,4.445,2.222,6.948,6.079,6.948c3.857,0,6.104-2.503,6.104-6.948c0-4.444-2.248-6.972-6.104-6.972
					C176.074,17.23,173.852,19.759,173.852,24.202 M165.781,30.818h1.533v-7.356c0-3.065,1.379-4.649,4.01-4.649h0.204V17.23h-0.178
					c-1.916,0-3.296,0.817-4.087,2.656v-2.324h-1.482V30.818z M151.186,30.818h1.686v-8.71h9.016v-1.507h-9.016V13.96h9.936v-1.507
					h-11.622V30.818z M131.315,15.162c0.102,0.561,0.23,1.098,0.408,1.609l4.623,14.048h2.35l4.726-14.048
					c0.153-0.46,0.306-0.996,0.435-1.609v15.657h2.426V12.454h-3.576l-4.725,14.048c-0.153,0.459-0.282,0.945-0.409,1.506
					c-0.077-0.408-0.23-0.894-0.434-1.506l-4.547-14.048h-3.575v18.365h2.299V15.162z M122.758,23.998
					c-0.127,3.09-2.249,5.108-5.237,5.108c-3.473,0-5.848-2.886-5.848-7.433c0-4.776,2.171-7.483,5.875-7.483
					c2.783,0,4.597,1.354,5.058,3.78h2.452c-0.408-3.677-3.218-6.002-7.407-6.002c-5.237,0-8.531,3.653-8.531,9.4
					c0,6.309,3.167,9.962,8.275,9.962c4.496,0,7.561-2.861,7.79-7.331H122.758z M90.55,30.818h2.502V22.21h9.528v8.608h2.503V12.454
					h-2.503v7.535h-9.528v-7.535H90.55V30.818z"/>
			</g>
			<g>
				<path fill="#527180" d="M97.452,46.979h-1.057v-4.277h-4.787v4.277H90.55V37.89h1.057v3.867h4.787V37.89h1.057V46.979z"/>
				<path fill="#527180" d="M100.122,40.165v4.421c0,0.556,0.127,0.97,0.379,1.244c0.253,0.273,0.649,0.409,1.188,0.409
					c0.713,0,1.234-0.195,1.564-0.584c0.329-0.389,0.494-1.025,0.494-1.908v-3.582h1.033v6.815h-0.852l-0.15-0.914h-0.056
					c-0.211,0.335-0.505,0.593-0.879,0.771c-0.376,0.177-0.803,0.267-1.284,0.267c-0.829,0-1.45-0.197-1.863-0.59
					c-0.412-0.394-0.618-1.024-0.618-1.89v-4.458H100.122z"/>
				<path fill="#527180" d="M115.016,46.979v-4.433c0-0.543-0.116-0.951-0.348-1.222c-0.232-0.271-0.592-0.407-1.081-0.407
					c-0.643,0-1.117,0.184-1.424,0.553c-0.307,0.369-0.46,0.937-0.46,1.704v3.805h-1.033v-4.433c0-0.543-0.116-0.951-0.348-1.222
					c-0.232-0.271-0.594-0.407-1.088-0.407c-0.646,0-1.121,0.194-1.42,0.581c-0.301,0.388-0.451,1.023-0.451,1.906v3.575h-1.032
					v-6.815h0.84l0.167,0.933h0.05c0.195-0.332,0.469-0.59,0.823-0.778c0.355-0.186,0.751-0.28,1.191-0.28
					c1.065,0,1.761,0.386,2.088,1.157h0.05c0.203-0.356,0.497-0.639,0.883-0.846c0.386-0.207,0.824-0.311,1.318-0.311
					c0.77,0,1.348,0.198,1.731,0.594c0.384,0.396,0.576,1.029,0.576,1.899v4.446H115.016z"/>
				<path fill="#527180" d="M121.729,46.979l-0.205-0.97h-0.05c-0.34,0.427-0.678,0.716-1.016,0.867
					c-0.338,0.151-0.76,0.227-1.265,0.227c-0.676,0-1.206-0.174-1.588-0.522c-0.384-0.348-0.576-0.844-0.576-1.486
					c0-1.376,1.1-2.098,3.302-2.163l1.156-0.037v-0.423c0-0.535-0.115-0.93-0.345-1.184c-0.229-0.255-0.598-0.382-1.103-0.382
					c-0.568,0-1.21,0.174-1.928,0.522l-0.317-0.79c0.335-0.182,0.704-0.325,1.104-0.429c0.399-0.103,0.801-0.155,1.203-0.155
					c0.813,0,1.414,0.18,1.806,0.541c0.392,0.36,0.588,0.939,0.588,1.735v4.65H121.729z M119.398,46.252
					c0.643,0,1.147-0.176,1.514-0.528c0.367-0.353,0.55-0.845,0.55-1.48v-0.616l-1.033,0.044c-0.82,0.029-1.412,0.156-1.775,0.382
					c-0.363,0.227-0.544,0.578-0.544,1.054c0,0.374,0.113,0.657,0.339,0.852C118.676,46.155,118.992,46.252,119.398,46.252z"/>
				<path fill="#527180" d="M128.646,46.979v-4.408c0-0.556-0.126-0.97-0.379-1.244c-0.252-0.273-0.649-0.409-1.187-0.409
					c-0.713,0-1.236,0.192-1.567,0.578c-0.332,0.386-0.498,1.022-0.498,1.909v3.575h-1.032v-6.815h0.84l0.167,0.933h0.05
					c0.211-0.336,0.507-0.596,0.888-0.781c0.382-0.185,0.806-0.277,1.275-0.277c0.821,0,1.439,0.198,1.853,0.594
					c0.415,0.396,0.621,1.029,0.621,1.899v4.446H128.646z"/>
				<path fill="#527180" d="M137.881,38.704c-0.999,0-1.788,0.333-2.366,0.998c-0.578,0.664-0.867,1.576-0.867,2.732
					c0,1.19,0.279,2.109,0.836,2.757c0.558,0.649,1.353,0.973,2.385,0.973c0.634,0,1.357-0.114,2.17-0.342v0.926
					c-0.63,0.237-1.408,0.355-2.332,0.355c-1.339,0-2.372-0.406-3.099-1.218c-0.728-0.813-1.091-1.967-1.091-3.463
					c0-0.937,0.175-1.758,0.526-2.462c0.35-0.705,0.856-1.248,1.517-1.629c0.661-0.382,1.439-0.572,2.334-0.572
					c0.953,0,1.787,0.174,2.5,0.522l-0.448,0.908C139.257,38.866,138.568,38.704,137.881,38.704z"/>
				<path fill="#527180" d="M145.419,46.979l-0.205-0.97h-0.05c-0.34,0.427-0.678,0.716-1.016,0.867
					c-0.338,0.151-0.76,0.227-1.265,0.227c-0.676,0-1.206-0.174-1.588-0.522c-0.384-0.348-0.576-0.844-0.576-1.486
					c0-1.376,1.1-2.098,3.302-2.163l1.156-0.037v-0.423c0-0.535-0.115-0.93-0.345-1.184c-0.229-0.255-0.598-0.382-1.103-0.382
					c-0.568,0-1.21,0.174-1.928,0.522l-0.317-0.79c0.335-0.182,0.704-0.325,1.104-0.429c0.399-0.103,0.801-0.155,1.203-0.155
					c0.813,0,1.414,0.18,1.806,0.541c0.392,0.36,0.588,0.939,0.588,1.735v4.65H145.419z M143.088,46.252
					c0.643,0,1.147-0.176,1.514-0.528c0.367-0.353,0.55-0.845,0.55-1.48v-0.616l-1.033,0.044c-0.82,0.029-1.412,0.156-1.775,0.382
					c-0.363,0.227-0.544,0.578-0.544,1.054c0,0.374,0.113,0.657,0.339,0.852C142.366,46.155,142.682,46.252,143.088,46.252z"/>
				<path fill="#527180" d="M150.846,47.104c-0.444,0-0.849-0.082-1.216-0.246c-0.367-0.164-0.674-0.415-0.924-0.755h-0.074
					c0.049,0.398,0.074,0.775,0.074,1.131v2.804h-1.032v-9.874h0.84l0.143,0.933h0.049c0.266-0.373,0.575-0.643,0.927-0.809
					c0.352-0.165,0.757-0.249,1.213-0.249c0.903,0,1.6,0.309,2.092,0.927c0.491,0.618,0.737,1.484,0.737,2.598
					c0,1.12-0.25,1.989-0.749,2.608C152.425,46.794,151.732,47.104,150.846,47.104z M150.696,40.918c-0.696,0-1.2,0.192-1.511,0.578
					c-0.311,0.386-0.47,0.999-0.479,1.841v0.229c0,0.958,0.16,1.642,0.479,2.056c0.319,0.412,0.831,0.618,1.536,0.618
					c0.588,0,1.049-0.238,1.383-0.715c0.334-0.476,0.501-1.133,0.501-1.971c0-0.85-0.167-1.502-0.501-1.956
					C151.771,41.145,151.301,40.918,150.696,40.918z"/>
				<path fill="#527180" d="M154.753,38.319c0-0.236,0.058-0.409,0.174-0.519s0.261-0.165,0.436-0.165
					c0.165,0,0.308,0.056,0.429,0.167c0.121,0.112,0.18,0.284,0.18,0.516c0,0.232-0.059,0.405-0.18,0.519
					c-0.121,0.114-0.263,0.171-0.429,0.171c-0.175,0-0.32-0.057-0.436-0.171S154.753,38.551,154.753,38.319z M155.872,46.979h-1.032
					v-6.815h1.032V46.979z"/>
				<path fill="#527180" d="M159.624,46.252c0.183,0,0.359-0.014,0.529-0.04c0.169-0.027,0.304-0.055,0.404-0.084v0.79
					c-0.112,0.054-0.277,0.099-0.494,0.133c-0.218,0.036-0.413,0.053-0.588,0.053c-1.318,0-1.977-0.694-1.977-2.083v-4.053h-0.976
					V40.47l0.976-0.43l0.435-1.454h0.597v1.578h1.977v0.802h-1.977v4.01c0,0.41,0.098,0.725,0.292,0.945
					C159.017,46.142,159.284,46.252,159.624,46.252z"/>
				<path fill="#527180" d="M165.473,46.979l-0.205-0.97h-0.05c-0.34,0.427-0.678,0.716-1.016,0.867
					c-0.338,0.151-0.76,0.227-1.265,0.227c-0.676,0-1.206-0.174-1.588-0.522c-0.384-0.348-0.576-0.844-0.576-1.486
					c0-1.376,1.1-2.098,3.302-2.163l1.156-0.037v-0.423c0-0.535-0.115-0.93-0.345-1.184c-0.229-0.255-0.598-0.382-1.103-0.382
					c-0.568,0-1.21,0.174-1.928,0.522l-0.317-0.79c0.335-0.182,0.704-0.325,1.104-0.429c0.399-0.103,0.801-0.155,1.203-0.155
					c0.813,0,1.414,0.18,1.806,0.541c0.392,0.36,0.588,0.939,0.588,1.735v4.65H165.473z M163.141,46.252
					c0.643,0,1.147-0.176,1.514-0.528c0.367-0.353,0.55-0.845,0.55-1.48v-0.616l-1.033,0.044c-0.82,0.029-1.412,0.156-1.775,0.382
					c-0.363,0.227-0.544,0.578-0.544,1.054c0,0.374,0.113,0.657,0.339,0.852C162.419,46.155,162.735,46.252,163.141,46.252z"/>
				<path fill="#527180" d="M168.759,46.979h-1.032v-9.674h1.032V46.979z"/>
				<path fill="#527180" d="M177.161,46.979l-3.084-8.058h-0.05c0.059,0.638,0.087,1.397,0.087,2.276v5.782h-0.976V37.89h1.592
					l2.878,7.498h0.05l2.904-7.498h1.578v9.089h-1.057v-5.857c0-0.672,0.029-1.401,0.087-2.189h-0.049l-3.108,8.046H177.161z"/>
				<path fill="#527180" d="M188.031,46.979l-0.205-0.97h-0.05c-0.34,0.427-0.678,0.716-1.016,0.867
					c-0.338,0.151-0.76,0.227-1.265,0.227c-0.676,0-1.206-0.174-1.588-0.522c-0.384-0.348-0.576-0.844-0.576-1.486
					c0-1.376,1.1-2.098,3.302-2.163l1.156-0.037v-0.423c0-0.535-0.115-0.93-0.345-1.184c-0.229-0.255-0.598-0.382-1.103-0.382
					c-0.568,0-1.21,0.174-1.928,0.522l-0.317-0.79c0.335-0.182,0.704-0.325,1.104-0.429c0.399-0.103,0.801-0.155,1.203-0.155
					c0.813,0,1.414,0.18,1.806,0.541c0.392,0.36,0.588,0.939,0.588,1.735v4.65H188.031z M185.7,46.252
					c0.643,0,1.147-0.176,1.514-0.528c0.367-0.353,0.55-0.845,0.55-1.48v-0.616l-1.033,0.044c-0.82,0.029-1.412,0.156-1.775,0.382
					c-0.363,0.227-0.544,0.578-0.544,1.054c0,0.374,0.113,0.657,0.339,0.852C184.978,46.155,185.294,46.252,185.7,46.252z"/>
				<path fill="#527180" d="M194.949,46.979v-4.408c0-0.556-0.126-0.97-0.379-1.244c-0.252-0.273-0.649-0.409-1.187-0.409
					c-0.713,0-1.236,0.192-1.567,0.578c-0.332,0.386-0.498,1.022-0.498,1.909v3.575h-1.032v-6.815h0.84l0.167,0.933h0.05
					c0.211-0.336,0.507-0.596,0.888-0.781c0.382-0.185,0.806-0.277,1.275-0.277c0.821,0,1.439,0.198,1.853,0.594
					c0.415,0.396,0.622,1.029,0.622,1.899v4.446H194.949z"/>
				<path fill="#527180" d="M201.655,46.979l-0.205-0.97h-0.05c-0.34,0.427-0.678,0.716-1.016,0.867
					c-0.338,0.151-0.76,0.227-1.265,0.227c-0.676,0-1.206-0.174-1.588-0.522c-0.384-0.348-0.576-0.844-0.576-1.486
					c0-1.376,1.1-2.098,3.302-2.163l1.156-0.037v-0.423c0-0.535-0.115-0.93-0.345-1.184c-0.229-0.255-0.598-0.382-1.103-0.382
					c-0.568,0-1.21,0.174-1.928,0.522l-0.317-0.79c0.335-0.182,0.704-0.325,1.104-0.429c0.399-0.103,0.801-0.155,1.203-0.155
					c0.813,0,1.414,0.18,1.806,0.541c0.392,0.36,0.588,0.939,0.588,1.735v4.65H201.655z M199.323,46.252
					c0.643,0,1.147-0.176,1.514-0.528c0.367-0.353,0.55-0.845,0.55-1.48v-0.616l-1.033,0.044c-0.82,0.029-1.412,0.156-1.775,0.382
					c-0.363,0.227-0.544,0.578-0.544,1.054c0,0.374,0.113,0.657,0.339,0.852C198.601,46.155,198.918,46.252,199.323,46.252z"/>
				<path fill="#527180" d="M209.487,40.165v0.653l-1.262,0.149c0.116,0.145,0.22,0.335,0.311,0.568
					c0.091,0.235,0.137,0.499,0.137,0.793c0,0.667-0.228,1.2-0.684,1.598s-1.082,0.597-1.878,0.597
					c-0.203,0-0.394-0.016-0.571-0.049c-0.44,0.232-0.66,0.524-0.66,0.876c0,0.186,0.077,0.324,0.23,0.413
					c0.154,0.09,0.417,0.133,0.79,0.133h1.206c0.738,0,1.304,0.155,1.7,0.467c0.396,0.311,0.594,0.762,0.594,1.355
					c0,0.754-0.303,1.329-0.908,1.725s-1.488,0.594-2.649,0.594c-0.891,0-1.578-0.166-2.061-0.497
					c-0.483-0.332-0.725-0.801-0.725-1.406c0-0.414,0.133-0.773,0.398-1.076c0.265-0.303,0.638-0.507,1.119-0.615
					c-0.174-0.079-0.32-0.201-0.438-0.367c-0.119-0.166-0.177-0.359-0.177-0.579c0-0.249,0.066-0.466,0.198-0.653
					c0.133-0.186,0.342-0.367,0.628-0.541c-0.352-0.145-0.639-0.392-0.861-0.74c-0.221-0.348-0.333-0.746-0.333-1.194
					c0-0.746,0.224-1.321,0.672-1.725c0.448-0.405,1.082-0.607,1.903-0.607c0.356,0,0.677,0.042,0.963,0.124H209.487z
					 M204.053,48.124c0,0.368,0.155,0.648,0.466,0.839c0.311,0.191,0.756,0.286,1.336,0.286c0.866,0,1.508-0.13,1.925-0.388
					c0.417-0.26,0.625-0.611,0.625-1.054c0-0.369-0.114-0.625-0.343-0.768c-0.228-0.143-0.656-0.215-1.287-0.215h-1.237
					c-0.469,0-0.834,0.112-1.095,0.335C204.184,47.383,204.053,47.705,204.053,48.124z M204.612,42.347
					c0,0.477,0.134,0.837,0.404,1.082c0.27,0.244,0.644,0.367,1.125,0.367c1.007,0,1.511-0.489,1.511-1.467
					c0-1.024-0.509-1.536-1.529-1.536c-0.485,0-0.858,0.131-1.119,0.392C204.743,41.446,204.612,41.834,204.612,42.347z"/>
				<path fill="#527180" d="M213.128,47.104c-1.007,0-1.802-0.307-2.385-0.92s-0.874-1.465-0.874-2.555
					c0-1.098,0.271-1.971,0.812-2.617c0.541-0.647,1.268-0.971,2.179-0.971c0.855,0,1.53,0.282,2.027,0.843
					c0.497,0.562,0.746,1.302,0.746,2.223v0.653h-4.694c0.021,0.801,0.223,1.408,0.607,1.822c0.383,0.415,0.923,0.622,1.62,0.622
					c0.733,0,1.459-0.154,2.176-0.461v0.92c-0.366,0.157-0.71,0.271-1.036,0.339C213.981,47.07,213.588,47.104,213.128,47.104z
					 M212.848,40.905c-0.547,0-0.983,0.178-1.309,0.535c-0.325,0.356-0.517,0.85-0.575,1.48h3.562c0-0.651-0.144-1.149-0.435-1.495
					C213.801,41.078,213.387,40.905,212.848,40.905z"/>
				<path fill="#527180" d="M225.441,46.979v-4.433c0-0.543-0.116-0.951-0.348-1.222c-0.232-0.271-0.592-0.407-1.081-0.407
					c-0.643,0-1.117,0.184-1.424,0.553c-0.307,0.369-0.46,0.937-0.46,1.704v3.805h-1.033v-4.433c0-0.543-0.116-0.951-0.348-1.222
					c-0.232-0.271-0.594-0.407-1.088-0.407c-0.646,0-1.121,0.194-1.42,0.581c-0.301,0.388-0.451,1.023-0.451,1.906v3.575h-1.032
					v-6.815h0.84l0.167,0.933h0.05c0.195-0.332,0.469-0.59,0.823-0.778c0.355-0.186,0.751-0.28,1.191-0.28
					c1.065,0,1.761,0.386,2.088,1.157h0.05c0.203-0.356,0.497-0.639,0.883-0.846c0.386-0.207,0.824-0.311,1.318-0.311
					c0.77,0,1.348,0.198,1.731,0.594c0.384,0.396,0.576,1.029,0.576,1.899v4.446H225.441z"/>
				<path fill="#527180" d="M230.841,47.104c-1.007,0-1.802-0.307-2.385-0.92s-0.874-1.465-0.874-2.555
					c0-1.098,0.271-1.971,0.812-2.617c0.541-0.647,1.268-0.971,2.179-0.971c0.855,0,1.53,0.282,2.027,0.843
					c0.497,0.562,0.746,1.302,0.746,2.223v0.653h-4.694c0.021,0.801,0.223,1.408,0.607,1.822c0.383,0.415,0.923,0.622,1.62,0.622
					c0.733,0,1.459-0.154,2.176-0.461v0.92c-0.366,0.157-0.71,0.271-1.036,0.339C231.694,47.07,231.301,47.104,230.841,47.104z
					 M230.562,40.905c-0.547,0-0.983,0.178-1.309,0.535c-0.325,0.356-0.517,0.85-0.575,1.48h3.562c0-0.651-0.144-1.149-0.435-1.495
					C231.515,41.078,231.1,40.905,230.562,40.905z"/>
				<path fill="#527180" d="M239.133,46.979v-4.408c0-0.556-0.126-0.97-0.379-1.244c-0.252-0.273-0.649-0.409-1.187-0.409
					c-0.713,0-1.236,0.192-1.567,0.578c-0.332,0.386-0.498,1.022-0.498,1.909v3.575h-1.032v-6.815h0.84l0.167,0.933h0.05
					c0.211-0.336,0.507-0.596,0.888-0.781c0.382-0.185,0.806-0.277,1.275-0.277c0.821,0,1.439,0.198,1.853,0.594
					c0.415,0.396,0.621,1.029,0.621,1.899v4.446H239.133z"/>
				<path fill="#527180" d="M243.849,46.252c0.183,0,0.359-0.014,0.529-0.04c0.169-0.027,0.304-0.055,0.404-0.084v0.79
					c-0.112,0.054-0.277,0.099-0.494,0.133c-0.218,0.036-0.413,0.053-0.588,0.053c-1.318,0-1.977-0.694-1.977-2.083v-4.053h-0.976
					V40.47l0.976-0.43l0.435-1.454h0.597v1.578h1.977v0.802h-1.977v4.01c0,0.41,0.098,0.725,0.292,0.945
					C243.242,46.142,243.509,46.252,243.849,46.252z"/>
			</g>
		</g>
	</g>
</g>
</svg>
