<?xml version="1.0" encoding="utf-8"?>
<!-- Generator: Adobe Illustrator 17.0.0, SVG Export Plug-In . SVG Version: 6.00 Build 0)  -->
<!DOCTYPE svg PUBLIC "-//W3C//DTD SVG 1.1//EN" "http://www.w3.org/Graphics/SVG/1.1/DTD/svg11.dtd">
<svg version="1.1" id="Capa_1" class="logo" xmlns="http://www.w3.org/2000/svg" xmlns:xlink="http://www.w3.org/1999/xlink" x="0px" y="0px"
	 width="318.333px" height="99.286px" viewBox="-3.552 -3.661 318.333 99.286"
	 enable-background="new -3.552 -3.661 318.333 99.286" xml:space="preserve">
<g>
	<g>
		<defs>
			<rect id="SVGID_1_" x="-468.355" y="-325.588" width="841.89" height="595.276"/>
		</defs>
		<clipPath id="SVGID_2_">
			<use xlink:href="#SVGID_1_"  overflow="visible"/>
		</clipPath>
		<path class="logo-isotype" clip-path="url(#SVGID_2_)" fill="#397A8E" d="M55.711,33.078l7.037-4.351l7.746,1.739l4.831,2.783H55.678L55.711,33.078z
			 M44.4,14.716l0.109-0.06c0.246-0.138,0.859-0.285,1.621-0.285c0.557,0,1.045,0.08,1.371,0.23c1.203,0.54,3.895,2.267,2.942,6.596
			c-0.793,3.607-1.891,5.118-3.789,5.216c-0.672,0.033-1.114,0.001-1.168-0.002c-1.133,0-2.585-0.59-3.771-5.193
			C40.954,18.262,41.857,16.074,44.4,14.716 M27.401,67.781c0.062-0.037,0.108-0.09,0.14-0.151l11.314-22.895
			c0.21,2.63,0.681,8.569,1.023,13.438l-1.091,2.521l-8.166,8.494c-0.053,0.053-0.087,0.123-0.1,0.198l-0.513,3.011l-9.747-0.183
			L27.401,67.781z M21.707,30.468l8.168-1.579l6.774,4.189l0.034,0.171H16.881L21.707,30.468z M55.01,32.771L52.875,43.31
			c-0.072,0.485-1.275,8.663-2.037,14.967l-0.013,0.004l0.011,0.026c-0.32,2.66-0.562,4.985-0.604,6.249
			c-0.025,0.731-0.135,1.723-0.262,2.873c-0.26,2.354-0.586,5.282-0.262,7.227c0.162,0.972,0.33,1.658,0.447,2.078h-3.854V49.227
			c0-0.207-0.168-0.375-0.375-0.375s-0.375,0.168-0.375,0.375v27.508h-4.138c0.117-0.42,0.284-1.108,0.447-2.078
			c0.31-1.86-0.097-4.539-0.455-6.899c-0.188-1.237-0.364-2.403-0.391-3.2c-0.141-4.25-1.51-21.08-1.531-21.295l-2.132-10.49
			c-0.021-0.101-0.083-0.19-0.171-0.245L16.902,19.984h5.484c0.995,0,9.821,2.592,13.211,3.653c2.433,0.76,6.064,1.611,7.04,1.836
			c0.774,1.132,1.693,1.687,2.817,1.687h0.002c0,0,0.223,0.017,0.592,0.017c0.182,0,0.399-0.005,0.643-0.017
			c1.359-0.068,2.298-0.758,2.978-1.756c1.065-0.226,4.696-1.017,7.096-1.767c3.386-1.062,12.211-3.653,13.209-3.653h5.484
			L55.18,32.526C55.092,32.581,55.029,32.671,55.01,32.771 M53.443,44.604L64.82,67.63c0.029,0.062,0.078,0.114,0.137,0.151
			l7.143,4.435l-9.746,0.181l-0.512-3.011c-0.017-0.082-0.058-0.159-0.117-0.215l-9.215-8.397l-0.908-2.548
			C52.205,53.248,53.078,47.124,53.443,44.604 M46.134,2.122c-23.987,0-43.433,19.444-43.433,43.432
			c0,23.986,19.445,43.431,43.433,43.431s43.433-19.444,43.433-43.431C89.566,21.566,70.121,2.122,46.134,2.122"/>
	</g>
	<g>
		<defs>
			<rect id="SVGID_3_" x="-415.184" y="-338.354" width="841.89" height="595.276"/>
		</defs>
		<clipPath id="SVGID_4_">
			<use xlink:href="#SVGID_3_"  overflow="visible"/>
		</clipPath>
		<path class="logo-text" clip-path="url(#SVGID_4_)" fill="#397A8E" d="M303.79,34.339h-2.65v6.58h-3.137v2.161h3.137v16.691
			c0,3.135,0.663,4.635,3.621,4.635c1.016,0,2.077-0.176,3.268-0.485v-2.119c-1.015,0.221-1.854,0.441-2.56,0.441
			c-1.457,0-1.678-0.794-1.678-2.472V43.08h4.238v-2.161h-4.238C303.79,40.918,303.79,34.339,303.79,34.339z M274.957,63.834h2.65
			V50.322c0-4.769,2.782-7.638,6.977-7.638c4.681,0,5.694,2.207,5.694,6.842v14.308h2.65V49.88v-0.662
			c0-2.43-0.044-4.24-0.928-5.653c-1.235-2.031-3.709-3.22-6.89-3.22c-3.354,0-5.872,1.41-7.592,4.236v-3.663h-2.562v22.916H274.957
			z M250.365,52.396c0-6.269,2.913-9.713,7.769-9.713c4.903,0,7.816,3.442,7.816,9.713s-2.915,9.671-7.816,9.671
			C253.278,62.068,250.365,58.668,250.365,52.396 M247.626,52.396c0,7.684,3.841,12.01,10.507,12.01
			c6.669,0,10.555-4.326,10.555-12.01c0-7.682-3.885-12.053-10.555-12.053C251.466,40.345,247.626,44.713,247.626,52.396
			 M233.672,63.834h2.65V51.118c0-5.299,2.384-8.037,6.932-8.037h0.353v-2.735h-0.309c-3.312,0-5.697,1.41-7.065,4.589V40.92h-2.564
			v22.915H233.672z M208.439,63.834h2.917V48.777h15.587v-2.604h-15.587V34.691h17.177v-2.604h-20.093V63.834z M174.09,36.766
			c0.176,0.972,0.395,1.9,0.706,2.782l7.993,24.285h4.062l8.169-24.285c0.263-0.794,0.529-1.722,0.75-2.782v27.068h4.196V32.087
			h-6.184l-8.166,24.284c-0.265,0.794-0.487,1.634-0.707,2.604c-0.132-0.706-0.397-1.546-0.75-2.604l-7.86-24.284h-6.182v31.747
			h3.975C174.09,63.834,174.09,36.766,174.09,36.766z M159.297,52.043c-0.221,5.343-3.887,8.831-9.053,8.831
			c-6.004,0-10.11-4.99-10.11-12.849c0-8.257,3.753-12.937,10.156-12.937c4.812,0,7.947,2.34,8.743,6.535h4.236
			c-0.704-6.357-5.562-10.377-12.804-10.377c-9.053,0-14.747,6.315-14.747,16.25c0,10.906,5.475,17.219,14.306,17.219
			c7.772,0,13.071-4.946,13.468-12.674C163.491,52.043,159.297,52.043,159.297,52.043z M103.619,63.834h4.326V48.953h16.471v14.881
			h4.326V32.087h-4.326v13.025h-16.471V32.087h-4.326V63.834z"/>
	</g>
</g>
</svg>
