<?xml version="1.0" encoding="utf-8"?>
<!-- Generator: Adobe Illustrator 17.0.0, SVG Export Plug-In . SVG Version: 6.00 Build 0)  -->
<!DOCTYPE svg PUBLIC "-//W3C//DTD SVG 1.1//EN" "http://www.w3.org/Graphics/SVG/1.1/DTD/svg11.dtd">
<svg version="1.1" id="Layer_1" xmlns="http://www.w3.org/2000/svg" xmlns:xlink="http://www.w3.org/1999/xlink" x="0px" y="0px"
	 width="132.884px" height="145.085px" viewBox="0 0 132.884 145.085" enable-background="new 0 0 132.884 145.085"
	 xml:space="preserve">
<path class="logo-isotype" fill="#92D3C7" d="M75.607,40.085l7.037-4.352l7.746,1.739l4.832,2.783H75.574L75.607,40.085z M64.297,21.723l0.109-0.06
	c0.246-0.138,0.859-0.285,1.621-0.285c0.557,0,1.045,0.08,1.371,0.229c1.203,0.54,3.895,2.267,2.942,6.596
	c-0.794,3.607-1.892,5.118-3.789,5.216c-0.673,0.033-1.115,0.001-1.169-0.002c-1.133,0-2.584-0.59-3.772-5.193
	C60.851,25.269,61.754,23.081,64.297,21.723 M47.299,74.788c0.061-0.037,0.108-0.09,0.139-0.151l11.314-22.894
	c0.21,2.63,0.681,8.569,1.023,13.437L58.684,67.7l-8.166,8.494c-0.052,0.053-0.087,0.123-0.1,0.198l-0.513,3.011l-9.747-0.183
	L47.299,74.788z M41.603,37.475l8.168-1.579l6.775,4.189l0.033,0.171H36.777L41.603,37.475z M74.906,39.779l-2.135,10.539
	c-0.072,0.485-1.275,8.663-2.037,14.967l-0.012,0.004l0.01,0.026c-0.32,2.66-0.562,4.985-0.604,6.249
	c-0.025,0.731-0.135,1.723-0.262,2.873c-0.26,2.354-0.586,5.282-0.262,7.226c0.162,0.972,0.33,1.658,0.447,2.078h-3.854V56.234
	c0-0.207-0.168-0.375-0.375-0.375c-0.207,0-0.375,0.168-0.375,0.375v27.508H61.31c0.117-0.42,0.285-1.108,0.447-2.078
	c0.31-1.86-0.097-4.539-0.455-6.899c-0.188-1.237-0.364-2.403-0.391-3.2c-0.141-4.25-1.51-21.08-1.53-21.295l-2.133-10.49
	c-0.021-0.101-0.083-0.19-0.171-0.245L36.799,26.991h5.484c0.995,0,9.821,2.592,13.211,3.653c2.433,0.76,6.064,1.611,7.04,1.836
	c0.774,1.132,1.693,1.687,2.817,1.687h0.002c0,0,0.223,0.017,0.592,0.017c0.182,0,0.398-0.005,0.643-0.017
	c1.359-0.068,2.299-0.758,2.978-1.756c1.065-0.226,4.697-1.017,7.096-1.767c3.387-1.062,12.211-3.653,13.209-3.653h5.484
	L75.076,39.533C74.988,39.588,74.927,39.678,74.906,39.779 M73.341,51.612l11.376,23.025c0.029,0.062,0.078,0.114,0.137,0.151
	l7.143,4.435l-9.746,0.181l-0.512-3.011c-0.016-0.082-0.057-0.159-0.117-0.215l-9.215-8.397l-0.908-2.548
	C72.102,60.255,72.975,54.131,73.341,51.612 M66.03,9.129c-23.987,0-43.433,19.444-43.433,43.432
	c0,23.986,19.445,43.431,43.433,43.431s43.433-19.444,43.433-43.431C109.463,28.573,90.018,9.129,66.03,9.129"/>
<path class="logo-name" fill="#92D3C7" d="M119.82,115.508h-1.56v3.878h-1.849v1.274h1.849v9.838c0,1.848,0.39,2.732,2.134,2.732
	c0.598,0,1.223-0.104,1.925-0.286v-1.249c-0.598,0.13-1.093,0.26-1.509,0.26c-0.859,0-0.989-0.468-0.989-1.457v-9.838h2.498v-1.274
	h-2.498V115.508z M102.826,132.893h1.562v-7.964c0-2.811,1.64-4.502,4.111-4.502c2.76,0,3.358,1.301,3.358,4.033v8.433h1.561v-8.225
	v-0.39c0-1.432-0.025-2.499-0.546-3.332c-0.729-1.197-2.186-1.899-4.06-1.899c-1.978,0-3.462,0.832-4.477,2.498v-2.159h-1.509
	V132.893z M88.33,126.152c0-3.695,1.719-5.725,4.58-5.725c2.89,0,4.607,2.029,4.607,5.725c0,3.696-1.718,5.7-4.607,5.7
	C90.049,131.852,88.33,129.848,88.33,126.152 M86.717,126.152c0,4.529,2.264,7.079,6.193,7.079c3.931,0,6.221-2.55,6.221-7.079
	c0-4.528-2.29-7.104-6.221-7.104C88.98,119.047,86.717,121.623,86.717,126.152 M78.493,132.893h1.562v-7.495
	c0-3.123,1.404-4.737,4.086-4.737h0.208v-1.613h-0.183c-1.951,0-3.356,0.832-4.164,2.706v-2.367h-1.509V132.893z M63.621,132.893
	h1.717v-8.875h9.187v-1.535h-9.187v-6.767h10.124v-1.535H63.621V132.893z M49.879,124.851c0.209-2.603,1.536-3.982,3.801-3.982
	c2.315,0,3.644,1.406,3.67,3.982H49.879z M57.297,128.494c-0.364,1.77-1.613,2.758-3.487,2.758c-2.42,0-3.878-1.612-3.931-4.502
	h9.839c0.025-0.338,0.025-0.677,0.025-1.015c0-4.424-2.264-6.897-6.142-6.897c-3.748,0-6.116,2.682-6.116,7.393
	c0,4.424,2.368,7.103,6.116,7.103c3.201,0,5.465-1.82,5.96-4.84H57.297z M38.585,132.893h2.29v-7.573
	c0-2.551,1.302-3.904,3.748-3.904c0.183,0,0.364,0,0.546,0.026v-2.42c-0.208-0.027-0.39-0.027-0.598-0.027
	c-1.796,0-3.045,0.885-3.774,2.733v-2.446h-2.212V132.893z M31.897,116.782h2.29v-2.603h-2.29V116.782z M31.897,132.893h2.29
	v-13.611h-2.29V132.893z M12.431,132.893h2.55v-8.771h9.708v8.771h2.55v-18.712h-2.55v7.677H14.98v-7.677h-2.55V132.893z"/>
</svg>
