<?xml version="1.0" encoding="utf-8"?>
<!-- Generator: Adobe Illustrator 17.0.0, SVG Export Plug-In . SVG Version: 6.00 Build 0)  -->
<!DOCTYPE svg PUBLIC "-//W3C//DTD SVG 1.1//EN" "http://www.w3.org/Graphics/SVG/1.1/DTD/svg11.dtd">
<svg version="1.1" id="Layer_1" class="logo" xmlns="http://www.w3.org/2000/svg" xmlns:xlink="http://www.w3.org/1999/xlink" x="0px" y="0px"
	 width="237.209px" height="234.093px" viewBox="0 0 237.209 234.093" enable-background="new 0 0 237.209 234.093"
	 xml:space="preserve">
<path class="logo-icon" fill="#397A8E" d="M141.379,86.381l16.82-10.401l18.514,4.157l11.547,6.652H141.3L141.379,86.381z M114.346,42.493l0.261-0.142
	c0.588-0.329,2.054-0.681,3.875-0.681c1.33,0,2.497,0.191,3.277,0.549c2.876,1.291,9.309,5.417,7.031,15.765
	c-1.895,8.622-4.519,12.233-9.056,12.466c-1.606,0.079-2.663,0.002-2.792-0.005c-2.707,0-6.178-1.41-9.014-12.413
	C106.109,50.968,108.268,45.74,114.346,42.493 M73.716,169.326c0.147-0.089,0.259-0.215,0.334-0.362l27.041-54.721
	c0.502,6.286,1.627,20.482,2.446,32.117l-2.607,6.024l-19.518,20.302c-0.126,0.126-0.208,0.294-0.238,0.474l-1.225,7.196
	l-23.297-0.436L73.716,169.326z M60.106,80.142l19.523-3.774L95.82,86.381l0.082,0.408H48.571L60.106,80.142z M139.703,85.648
	l-5.102,25.189c-0.173,1.16-3.048,20.706-4.869,35.772l-0.03,0.009l0.026,0.063c-0.766,6.358-1.344,11.916-1.442,14.936
	c-0.061,1.748-0.322,4.117-0.626,6.867c-0.621,5.625-1.4,12.625-0.625,17.272c0.387,2.322,0.789,3.964,1.069,4.967h-9.212v-65.747
	c0-0.495-0.402-0.896-0.896-0.896c-0.495,0-0.896,0.401-0.896,0.896v65.747h-9.89c0.28-1.004,0.679-2.649,1.069-4.967
	c0.74-4.446-0.231-10.849-1.088-16.49c-0.448-2.957-0.87-5.744-0.934-7.649c-0.336-10.158-3.608-50.384-3.66-50.897L97.5,85.648
	c-0.049-0.24-0.198-0.455-0.409-0.586l-48.47-29.977H61.73c2.378,0,23.474,6.195,31.576,8.732
	c5.814,1.816,14.495,3.851,16.827,4.388c1.851,2.705,4.047,4.031,6.734,4.031h0.005c0,0,0.532,0.042,1.414,0.042
	c0.434,0,0.952-0.011,1.536-0.042c3.249-0.163,5.492-1.811,7.119-4.197c2.544-0.539,11.225-2.43,16.96-4.222
	c8.092-2.537,29.186-8.732,31.571-8.732h13.108l-48.47,29.977C139.899,85.193,139.75,85.408,139.703,85.648 M135.959,113.93
	l27.192,55.034c0.07,0.147,0.187,0.273,0.327,0.362l17.072,10.599l-23.294,0.432l-1.223-7.196c-0.04-0.196-0.138-0.38-0.28-0.513
	l-22.024-20.071l-2.171-6.09C133,134.59,135.086,119.952,135.959,113.93 M118.489,12.392c-57.333,0-103.809,46.474-103.809,103.807
	c0,57.33,46.477,103.805,103.809,103.805s103.809-46.474,103.809-103.805C222.298,58.867,175.821,12.392,118.489,12.392"/>
</svg>
